<svg width="112" height="18" viewBox="0 0 112 18" fill="none" xmlns="http://www.w3.org/2000/svg">
<path d="M0.17019 14V1.4H4.67019C5.97819 1.4 6.96819 1.7 7.64019 2.3C8.31219 2.9 8.64819 3.674 8.64819 4.622C8.64819 5.354 8.45619 5.948 8.07219 6.404C7.68819 6.86 7.24419 7.19 6.74019 7.394V7.52C7.34019 7.736 7.85619 8.09 8.28819 8.582C8.72019 9.062 8.93619 9.698 8.93619 10.49C8.93619 11.138 8.77419 11.732 8.45019 12.272C8.13819 12.8 7.67619 13.22 7.06419 13.532C6.45219 13.844 5.70219 14 4.81419 14H0.17019ZM2.07819 6.656H4.43619C5.16819 6.656 5.72619 6.512 6.11019 6.224C6.49419 5.924 6.68619 5.474 6.68619 4.874C6.68619 3.686 5.92419 3.092 4.40019 3.092H2.07819V6.656ZM2.07819 12.236H4.56219C5.34219 12.236 5.94219 12.068 6.36219 11.732C6.78219 11.396 6.99219 10.904 6.99219 10.256C6.99219 9.62 6.77019 9.134 6.32619 8.798C5.88219 8.45 5.28219 8.276 4.52619 8.276H2.07819V12.236ZM11.0892 17.96L13.2132 13.262H12.6912L9.21716 5.072H11.2872L13.9512 11.606L16.7772 5.072H18.7752L13.1052 17.96H11.0892ZM24.2401 14C23.3641 14 22.6681 13.79 22.1521 13.37C21.6361 12.938 21.3781 12.176 21.3781 11.084V6.692H19.1281V5.072H20.4601C21.0721 5.072 21.4321 4.772 21.5401 4.172L21.8101 2.732H23.2861V5.072H26.8141V6.692H23.2861V11.048C23.2861 11.516 23.3881 11.846 23.5921 12.038C23.8081 12.218 24.1741 12.308 24.6901 12.308H26.7781V14H24.2401ZM32.7291 14.216C31.8651 14.216 31.1031 14.024 30.4431 13.64C29.7831 13.244 29.2671 12.698 28.8951 12.002C28.5231 11.306 28.3371 10.496 28.3371 9.572C28.3371 8.636 28.5171 7.814 28.8771 7.106C29.2491 6.398 29.7651 5.846 30.4251 5.45C31.0971 5.054 31.8711 4.856 32.7471 4.856C33.6111 4.856 34.3551 5.054 34.9791 5.45C35.6031 5.834 36.0831 6.35 36.4191 6.998C36.7671 7.646 36.9411 8.36 36.9411 9.14C36.9411 9.26 36.9411 9.392 36.9411 9.536C36.9411 9.668 36.9351 9.818 36.9231 9.986H30.2091C30.2691 10.814 30.5391 11.444 31.0191 11.876C31.4991 12.296 32.0631 12.506 32.7111 12.506C33.2751 12.506 33.7191 12.392 34.0431 12.164C34.3791 11.924 34.6251 11.6 34.7811 11.192H36.7071C36.4911 12.044 36.0411 12.764 35.3571 13.352C34.6731 13.928 33.7971 14.216 32.7291 14.216ZM32.7291 6.512C32.1411 6.512 31.6191 6.692 31.1631 7.052C30.7071 7.4 30.4131 7.892 30.2811 8.528H35.0331C34.9851 7.928 34.7511 7.442 34.3311 7.07C33.9111 6.698 33.3771 6.512 32.7291 6.512ZM41.8121 14.216C40.8761 14.216 40.0541 13.952 39.3461 13.424C38.6381 12.884 38.0861 12.128 37.6901 11.156C37.2941 10.184 37.0961 9.032 37.0961 7.7C37.0961 6.392 37.2941 5.252 37.6901 4.28C38.0861 3.308 38.6501 2.552 39.3821 2.012C40.1261 1.46 41.0141 1.184 42.0461 1.184C43.2941 1.184 44.2961 1.526 45.0521 2.21C45.8201 2.894 46.2881 3.86 46.4561 5.108H44.3861C44.2661 4.46 44.0021 3.944 43.5941 3.56C43.1981 3.176 42.6821 2.984 42.0461 2.984C41.0741 2.984 40.3301 3.404 39.8141 4.244C39.2981 5.084 39.0401 6.236 39.0401 7.7C39.0401 9.224 39.3101 10.394 39.8501 11.21C40.4021 12.014 41.1161 12.416 41.9921 12.416C42.5801 12.416 43.0661 12.242 43.4501 11.894C43.8341 11.546 44.1281 11.102 44.3321 10.562C44.5361 10.01 44.6621 9.428 44.7101 8.816H42.0641V7.232H46.6361V14H44.8721L44.7461 12.308H44.6381C44.3981 12.86 44.0621 13.316 43.6301 13.676C43.1981 14.036 42.5921 14.216 41.8121 14.216ZM50.535 14.216C49.455 14.216 48.633 13.886 48.069 13.226C47.517 12.554 47.241 11.582 47.241 10.31V5.072H49.149V10.076C49.149 10.808 49.305 11.384 49.617 11.804C49.941 12.212 50.433 12.416 51.093 12.416C51.753 12.416 52.305 12.194 52.749 11.75C53.193 11.306 53.415 10.664 53.415 9.824V5.072H55.323V14H53.667L53.505 12.668H53.415C53.175 13.1 52.803 13.466 52.299 13.766C51.795 14.066 51.207 14.216 50.535 14.216ZM59.87 14.216C59.162 14.216 58.568 14.096 58.088 13.856C57.608 13.604 57.248 13.274 57.008 12.866C56.768 12.446 56.648 11.99 56.648 11.498C56.648 10.622 56.966 9.938 57.602 9.446C58.25 8.954 59.162 8.708 60.338 8.708H62.642V8.51C62.642 7.166 62.018 6.494 60.77 6.494C60.254 6.494 59.816 6.608 59.456 6.836C59.108 7.052 58.874 7.406 58.754 7.898H56.846C56.942 6.962 57.344 6.224 58.052 5.684C58.772 5.132 59.678 4.856 60.77 4.856C62.09 4.856 63.05 5.18 63.65 5.828C64.25 6.476 64.55 7.37 64.55 8.51V14H62.93L62.768 12.686H62.642C62.378 13.106 62.048 13.466 61.652 13.766C61.256 14.066 60.662 14.216 59.87 14.216ZM60.23 12.614C61.01 12.614 61.592 12.38 61.976 11.912C62.372 11.432 62.588 10.826 62.624 10.094H60.536C59.852 10.094 59.366 10.208 59.078 10.436C58.802 10.652 58.664 10.958 58.664 11.354C58.664 11.75 58.802 12.062 59.078 12.29C59.366 12.506 59.75 12.614 60.23 12.614ZM66.019 14V12.344H68.197V7.322C68.197 6.926 68.005 6.728 67.621 6.728H66.199V5.072H68.341C68.833 5.072 69.235 5.216 69.547 5.504C69.859 5.78 70.015 6.17 70.015 6.674V6.89H70.105C70.237 6.218 70.519 5.714 70.951 5.378C71.395 5.03 72.037 4.856 72.877 4.856H74.263V6.872H72.319C71.611 6.872 71.065 7.118 70.681 7.61C70.297 8.102 70.105 8.69 70.105 9.374V12.344H72.877V14H66.019ZM78.8999 14.216C78.1559 14.216 77.4899 14.042 76.9019 13.694C76.3139 13.334 75.8459 12.806 75.4979 12.11C75.1619 11.414 74.9939 10.556 74.9939 9.536C74.9939 8.516 75.1679 7.658 75.5159 6.962C75.8639 6.266 76.3319 5.744 76.9199 5.396C77.5199 5.036 78.1859 4.856 78.9179 4.856C79.6019 4.856 80.1659 4.988 80.6099 5.252C81.0539 5.504 81.3839 5.828 81.5999 6.224V1.04H83.5079V14H81.8699L81.7079 12.686H81.5999C81.3599 13.154 81.0179 13.526 80.5739 13.802C80.1419 14.078 79.5839 14.216 78.8999 14.216ZM79.2959 12.398C79.9799 12.398 80.5439 12.158 80.9879 11.678C81.4439 11.198 81.6719 10.484 81.6719 9.536C81.6719 8.576 81.4439 7.862 80.9879 7.394C80.5439 6.914 79.9799 6.674 79.2959 6.674C78.6119 6.674 78.0419 6.914 77.5859 7.394C77.1419 7.874 76.9199 8.594 76.9199 9.554C76.9199 10.502 77.1419 11.216 77.5859 11.696C78.0419 12.164 78.6119 12.398 79.2959 12.398ZM88.5589 3.704C88.1389 3.704 87.7849 3.572 87.4969 3.308C87.2209 3.032 87.0829 2.696 87.0829 2.3C87.0829 1.904 87.2209 1.574 87.4969 1.31C87.7849 1.046 88.1389 0.913999 88.5589 0.913999C88.9909 0.913999 89.3449 1.046 89.6209 1.31C89.9089 1.574 90.0529 1.904 90.0529 2.3C90.0529 2.696 89.9089 3.032 89.6209 3.308C89.3449 3.572 88.9909 3.704 88.5589 3.704ZM84.9769 14V12.344H87.7849V7.322C87.7849 6.926 87.5929 6.728 87.2089 6.728H85.2289V5.072H87.5509C88.2949 5.072 88.8349 5.246 89.1709 5.594C89.5189 5.93 89.6929 6.47 89.6929 7.214V12.344H92.5009V14H84.9769ZM97.2819 14.216C96.5739 14.216 95.9799 14.096 95.4999 13.856C95.0199 13.604 94.6599 13.274 94.4199 12.866C94.1799 12.446 94.0599 11.99 94.0599 11.498C94.0599 10.622 94.3779 9.938 95.0139 9.446C95.6619 8.954 96.5739 8.708 97.7499 8.708H100.054V8.51C100.054 7.166 99.4299 6.494 98.1819 6.494C97.6659 6.494 97.2279 6.608 96.8679 6.836C96.5199 7.052 96.2859 7.406 96.1659 7.898H94.2579C94.3539 6.962 94.7559 6.224 95.4639 5.684C96.1839 5.132 97.0899 4.856 98.1819 4.856C99.5019 4.856 100.462 5.18 101.062 5.828C101.662 6.476 101.962 7.37 101.962 8.51V14H100.342L100.18 12.686H100.054C99.7899 13.106 99.4599 13.466 99.0639 13.766C98.6679 14.066 98.0739 14.216 97.2819 14.216ZM97.6419 12.614C98.4219 12.614 99.0039 12.38 99.3879 11.912C99.7839 11.432 99.9999 10.826 100.036 10.094H97.9479C97.2639 10.094 96.7779 10.208 96.4899 10.436C96.2139 10.652 96.0759 10.958 96.0759 11.354C96.0759 11.75 96.2139 12.062 96.4899 12.29C96.7779 12.506 97.1619 12.614 97.6419 12.614ZM103.449 14V5.072H105.105L105.267 6.404H105.357C105.597 5.972 105.969 5.606 106.473 5.306C106.977 5.006 107.559 4.856 108.219 4.856C109.311 4.856 110.133 5.186 110.685 5.846C111.237 6.506 111.513 7.478 111.513 8.762V14H109.605V8.996C109.605 8.252 109.449 7.676 109.137 7.268C108.825 6.86 108.333 6.656 107.661 6.656C107.001 6.656 106.449 6.878 106.005 7.322C105.573 7.766 105.357 8.408 105.357 9.248V14H103.449Z" fill="white"/>
</svg>
